<svg width="2255" xmlns="http://www.w3.org/2000/svg" xmlns:ev="http://www.w3.org/2001/xml-events" height="804" viewBox="0 0 2255 804" xmlns:xlink="http://www.w3.org/1999/xlink"><defs/><g id="page1" transform="translate(5.5,5.5)"><rect x="0" width="2245" height="794" fill="none" y="0"/><g id="shape1" transform="translate(1624.020000,592.058000)"><text xml:space="preserve" style="fill:#191919;font-family:微软雅黑,PingFang SC,Mircrosoft YaHei,Arial;font-size:36.00pt"><tspan x="36.0" y="37.0" style="font-size:24.00pt">......</tspan></text></g><g id="group2" transform="translate(1534.017000,132.283000)"><path stroke="#323232" stroke-width="2" d="M237.9,86.4L237.9,.0L.0,.0L.0,86.4L237.9,86.4z" id="shape3" transform="translate(41.464000,348.244700)" fill="#ffffff" fill-rule="nonzero"/><path stroke="#323232" stroke-width="2" d="M237.9,89.9L237.9,.0L.0,.0L.0,89.9L237.9,89.9z" id="shape4" transform="translate(41.465000,99.105100)" fill="#ffffff" fill-rule="nonzero"/><g id="shape5" transform="translate(96.235800,28.414100)"><text xml:space="preserve" style="fill:#191919;font-family:微软雅黑,PingFang SC,Mircrosoft YaHei,Arial;font-size:36.00pt"><tspan x="40.2" y="37.0" style="font-size:24.00pt">......</tspan></text></g><g id="shape6" transform="translate(51.554000,0.000000)"><text xml:space="preserve" style="fill:#191919;font-family:微软雅黑,PingFang SC,Mircrosoft YaHei,Arial;font-size:21.00pt"><tspan x="20.8" y="24.0" style="font-size:14.00pt">Interface Signature</tspan></text></g><g id="group7" transform="translate(23.749000,293.858600)"><path stroke="#323232" stroke-width="2" d="M273.3,103.3L273.3,.0L.0,.0L.0,103.3L273.3,103.3z" id="shape8" fill="#ffffff" fill-rule="nonzero"/><g id="shape9" transform="translate(-9.602000,-12.987800)"><text xml:space="preserve" style="fill:#191919;font-family:微软雅黑,PingFang SC,Mircrosoft YaHei,Arial;font-size:12.00pt;font-weight:bold"><tspan x="4.4" y="28.0" style="font-size:8.00pt">    vendor: "Tenda",</tspan><tspan x="4.4" y="44.0" style="font-size:8.00pt">    product: "AC7",</tspan><tspan x="4.4" y="60.0" style="font-size:8.00pt">    POST interface:"</tspan><tspan x="106.4" style="fill:#62b2ca;font-size:8.00pt">/goform/SetPptpClientCfg</tspan><tspan x="250.4" style="font-size:8.00pt">"</tspan><tspan x="4.4" y="76.0" style="font-size:8.00pt">    parameters: "['</tspan><tspan x="97.4" style="fill:#c00000;font-size:8.00pt">list</tspan><tspan x="113.4" style="font-size:8.00pt">']",</tspan><tspan x="4.4" y="92.0" style="font-size:8.00pt">    button: "</tspan><tspan x="66.4" style="fill:#bbde9c;font-size:8.00pt">Save</tspan><tspan x="91.4" style="font-size:8.00pt">",</tspan><tspan x="4.4" y="108.0" style="font-size:8.00pt">    navigation path: "</tspan><tspan x="113.4" style="fill:#7030a0;font-size:8.00pt">VPN</tspan><tspan x="137.4" style="font-size:8.00pt">-></tspan><tspan x="150.4" style="fill:#7030a0;font-size:8.00pt">PPTP/L2TP Client</tspan><tspan x="244.4" style="font-size:8.00pt">"</tspan></text></g></g><g id="group10" transform="translate(23.749000,137.953600)"><path stroke="#323232" stroke-width="2" d="M273.3,103.3L273.3,.0L.0,.0L.0,103.3L273.3,103.3z" id="shape11" fill="#ffffff" fill-rule="nonzero"/><g id="shape12" transform="translate(-9.602000,-12.987800)"><text xml:space="preserve" style="fill:#191919;font-family:微软雅黑,PingFang SC,Mircrosoft YaHei,Arial;font-size:12.00pt;font-weight:bold"><tspan x="4.4" y="27.8" style="font-size:8.00pt">    vendor: "</tspan><tspan x="66.4" style="fill:#e1a48d;font-size:8.00pt">Tenda</tspan><tspan x="99.4" style="font-size:8.00pt">",</tspan><tspan x="4.4" y="43.8" style="font-size:8.00pt">    product: "</tspan><tspan x="72.4" style="fill:#e1a48d;font-size:8.00pt">AC7</tspan><tspan x="94.4" style="font-size:8.00pt">",</tspan><tspan x="4.4" y="59.8" style="font-size:8.00pt">    POST interface:"</tspan><tspan x="106.4" style="fill:#62b2ca;font-size:8.00pt">/goform/SetPptpServerCfg</tspan><tspan x="254.4" style="font-size:8.00pt">"</tspan><tspan x="4.4" y="75.8" style="font-size:8.00pt">    parameters: "[</tspan><tspan x="94.4" style="fill:#c00000;font-size:8.00pt">'serverEn</tspan><tspan x="143.4" style="font-size:8.00pt">', '</tspan><tspan x="155.4" style="fill:#c00000;font-size:8.00pt">startIp</tspan><tspan x="192.4" style="font-size:8.00pt">', ...]",</tspan><tspan x="4.4" y="91.8" style="font-size:8.00pt">    button: "+New",</tspan><tspan x="4.4" y="107.8" style="font-size:8.00pt">    navigation path: "VPN->PPTP Server"</tspan></text></g></g><g id="group13" transform="translate(0.000000,197.482000)"><path stroke="#323232" stroke-width="2" d="M287.9,122.2L287.9,.0L.0,.0L.0,122.2L287.9,122.2z" id="shape14" transform="translate(16.418000,6.612400)" fill="#ffffff" fill-rule="nonzero"/><g id="shape15"><text xml:space="preserve" style="fill:#000000;font-family:微软雅黑,PingFang SC,Mircrosoft YaHei,Arial;font-size:13.50pt;font-weight:bold"><tspan x="4.4" y="30.0" style="font-size:9.00pt">    vendor: "</tspan><tspan x="76.4" style="fill:#e1a48d;font-size:9.00pt">Tenda</tspan><tspan x="114.4" style="font-size:9.00pt">",</tspan><tspan x="4.4" y="47.0" style="font-size:9.00pt">    product: "</tspan><tspan x="81.4" style="fill:#e1a48d;font-size:9.00pt">AC7</tspan><tspan x="105.4" style="font-size:9.00pt">",</tspan><tspan x="4.4" y="64.0" style="font-size:9.00pt">    POST interface:"</tspan><tspan x="120.4" style="fill:#62b2ca;font-size:9.00pt">/goform/setPptpUserList</tspan><tspan x="274.4" style="font-size:9.00pt">"</tspan><tspan x="4.4" y="81.0" style="font-size:9.00pt">    parameters: "['</tspan><tspan x="111.4" style="fill:#c00000;font-size:9.00pt">list</tspan><tspan x="130.4" style="font-size:9.00pt">']",</tspan><tspan x="4.4" y="98.0" style="font-size:9.00pt">    button: "</tspan><tspan x="75.4" style="fill:#bbde9c;font-size:9.00pt">+New</tspan><tspan x="111.4" style="font-size:9.00pt">",</tspan><tspan x="4.4" y="115.0" style="font-size:9.00pt">    navigation path: "</tspan><tspan x="131.4" style="fill:#7030a0;font-size:9.00pt">VPN</tspan><tspan x="158.4" style="font-size:9.00pt">-></tspan><tspan x="172.4" style="fill:#7030a0;font-size:9.00pt">PPTP Server</tspan><tspan x="246.4" style="font-size:9.00pt">"</tspan></text></g></g></g><path stroke="#000000" stroke-width="1" d="M.0,.0L9.4,.0C12.1,-0.4,14.7,.5,16.5,2.4C18.4,4.2,19.3,6.8,18.9,9.4L18.9,103.9C18.5,106.5,19.4,109.2,21.3,111.0C23.1,112.9,25.7,113.8,28.3,113.4C25.7,113.0,23.1,113.9,21.3,115.7C19.4,117.6,18.5,120.2,18.9,122.8L18.9,268.4C19.3,271.0,18.4,273.7,16.5,275.5C14.7,277.4,12.1,278.3,9.4,277.9L.0,277.9" id="shape16" transform="matrix(1.000000,-0.000000,0.000000,-1.000000,1505.671200,510.236220)" fill="none"/><g id="group17" transform="translate(943.279000,132.283400)"><path stroke="#323232" stroke-width="2" d="M538.6,184.9L538.6,.0L.0,.0L.0,184.9L538.6,184.9z" id="shape18" transform="translate(0.000000,13.528800)" fill="#ffffff" fill-rule="nonzero"/><path stroke="#323232" stroke-width="2" d="M538.6,33.1L538.6,.0L.0,.0L.0,33.1L538.6,33.1z" id="shape19" transform="translate(0.005000,0.000000)" fill="#d7d7d7" fill-rule="nonzero"/></g><path stroke="#ec6a5d" stroke-width="1" d="M.0,5.7C.0,2.5,2.5,.0,5.7,.0C8.8,.0,11.3,2.5,11.3,5.7C11.3,8.8,8.8,11.3,5.7,11.3C2.5,11.3,.0,8.8,.0,5.7z" id="shape20" transform="translate(953.858710,142.204710)" fill="#ec6a5d" fill-rule="nonzero"/><path stroke="#61c553" stroke-width="1" d="M.0,5.7C.0,2.5,2.5,.0,5.7,.0C8.8,.0,11.3,2.5,11.3,5.7C11.3,8.8,8.8,11.3,5.7,11.3C2.5,11.3,.0,8.8,.0,5.7z" id="shape21" transform="translate(992.598710,142.204710)" fill="#61c553" fill-rule="nonzero"/><path stroke="#000000" stroke-width="1" d="M.0,5.7C.0,2.5,2.5,.0,5.7,.0C8.8,.0,11.3,2.5,11.3,5.7C11.3,8.8,8.8,11.3,5.7,11.3C2.5,11.3,.0,8.8,.0,5.7z" id="shape22" transform="translate(973.228710,142.204710)" fill="#ffffff" fill-rule="nonzero"/><g id="shape23" transform="translate(1009.940000,133.874000)"><text xml:space="preserve" style="fill:#e1a48d;font-family:微软雅黑,PingFang SC,Mircrosoft YaHei,Arial;font-size:16.50pt;font-weight:bold"><tspan x="5.5" y="20.0" style="font-size:11.00pt">Tenda AC7</tspan><tspan x="86.5" style="fill:#191919;font-size:11.00pt;font-weight:normal">  WiFi -> </tspan><tspan x="150.5" style="fill:#7030a0;font-size:11.00pt;font-weight:normal">VPN</tspan><tspan x="181.5" style="fill:#191919;font-size:11.00pt;font-weight:normal"> -> </tspan><tspan x="206.5" style="fill:#7030a0;font-size:11.00pt;font-weight:normal">PPTP Server</tspan></text></g><g id="shape24" transform="translate(1079.308100,170.079000)"><text xml:space="preserve" style="fill:#000000;font-family:微软雅黑,PingFang SC,Mircrosoft YaHei,Arial;font-size:16.50pt;font-weight:bold"><tspan x="4.4" y="30.5" style="font-size:11.00pt">PPTP Server</tspan></text></g><g id="group25" transform="translate(1193.854700,181.079000)"><path stroke="#c2c2c2" stroke-width="1" d="M1.3,.0L37.9,.0L37.9,27.9L1.3,27.9C.6,27.9,.0,26.2,.0,24.1L.0,3.8C.0,1.7,.6,.0,1.3,.0z" id="shape26" fill="#61c553" fill-rule="nonzero"/><path stroke="#c2c2c2" stroke-width="1" d="M1.3,.0L37.9,.0L37.9,27.9L1.3,27.9C.6,27.9,.0,26.2,.0,24.1L.0,3.8C.0,1.7,.6,.0,1.3,.0z" id="shape27" transform="matrix(-1.000000,0.000000,0.000000,1.000000,75.590600,0.095400)" fill="#ffffff" fill-rule="nonzero"/></g><g id="table28" transform="translate(963.070000,232.273300)"><g><path stroke="#a0a0a4" stroke-width="1" d="M.0,.0L106.0,.0L106.0,34.0L.0,34.0L.0,.0z" fill="#afafaf"/><text xml:space="preserve" style="fill:#191919;font-family:微软雅黑,PingFang SC,Mircrosoft YaHei,Arial;font-size:16.50pt"><tspan x="13.0" y="23.0" style="font-size:11.00pt">User Name</tspan></text></g><g><path stroke="#a0a0a4" stroke-width="1" d="M106.0,.0L206.0,.0L206.0,34.0L106.0,34.0L106.0,.0z" fill="#afafaf"/><text xml:space="preserve" style="fill:#191919;font-family:微软雅黑,PingFang SC,Mircrosoft YaHei,Arial;font-size:16.50pt"><tspan x="121.5" y="23.0" style="font-size:11.00pt">Password</tspan></text></g><g><path stroke="#a0a0a4" stroke-width="1" d="M206.0,.0L375.0,.0L375.0,34.0L206.0,34.0L206.0,.0z" fill="#afafaf"/><text xml:space="preserve" style="fill:#191919;font-family:微软雅黑,PingFang SC,Mircrosoft YaHei,Arial;font-size:16.50pt"><tspan x="224.0" y="23.0" style="font-size:11.00pt">Connection Status</tspan></text></g><g><path stroke="#a0a0a4" stroke-width="1" d="M375.0,.0L499.0,.0L499.0,34.0L375.0,34.0L375.0,.0z" fill="#afafaf"/><text xml:space="preserve" style="fill:#191919;font-family:微软雅黑,PingFang SC,Mircrosoft YaHei,Arial;font-size:16.50pt"><tspan x="400.0" y="23.0" style="font-size:11.00pt">Operation</tspan></text></g><g><path stroke="#a0a0a4" stroke-width="1" d="M.0,34.0L106.0,34.0L106.0,79.0L.0,79.0L.0,34.0z" fill="#ffffff"/><text xml:space="preserve" style="fill:#191919;font-family:微软雅黑,PingFang SC,Mircrosoft YaHei,Arial;font-size:16.50pt"/></g><g><path stroke="#a0a0a4" stroke-width="1" d="M106.0,34.0L206.0,34.0L206.0,79.0L106.0,79.0L106.0,34.0z" fill="#ffffff"/><text xml:space="preserve" style="fill:#191919;font-family:微软雅黑,PingFang SC,Mircrosoft YaHei,Arial;font-size:16.50pt"/></g><g><path stroke="#a0a0a4" stroke-width="1" d="M206.0,34.0L375.0,34.0L375.0,79.0L206.0,79.0L206.0,34.0z" fill="#ffffff"/><text xml:space="preserve" style="fill:#191919;font-family:微软雅黑,PingFang SC,Mircrosoft YaHei,Arial;font-size:16.50pt"/></g><g><path stroke="#a0a0a4" stroke-width="1" d="M375.0,34.0L499.0,34.0L499.0,79.0L375.0,79.0L375.0,34.0z" fill="#ffffff"/><text xml:space="preserve" style="fill:#191919;font-family:微软雅黑,PingFang SC,Mircrosoft YaHei,Arial;font-size:16.50pt"/></g></g><g id="shape29" transform="translate(973.232000,276.509200)"><path stroke="#9e9f9f" stroke-width="1" d="M1.0,.0L78.8,.0C79.3,.0,79.8,.9,79.8,2.0L79.8,22.6C79.8,23.7,79.3,24.6,78.8,24.6L1.0,24.6C.4,24.6,.0,23.7,.0,22.6L.0,2.0C.0,.9,.4,.0,1.0,.0z" fill="#fffcc7" fill-rule="nonzero"/><text xml:space="preserve" style="fill:#000000;font-family:微软雅黑,PingFang SC,Mircrosoft YaHei,Arial;font-size:18.00pt"><tspan x="15.9" y="18.8" style="font-size:12.00pt">admin</tspan></text></g><g id="shape30" transform="translate(1079.312000,276.509200)"><path stroke="#9e9f9f" stroke-width="1" d="M1.0,.0L78.8,.0C79.3,.0,79.8,.9,79.8,2.0L79.8,22.6C79.8,23.7,79.3,24.6,78.8,24.6L1.0,24.6C.4,24.6,.0,23.7,.0,22.6L.0,2.0C.0,.9,.4,.0,1.0,.0z" fill="#fffcc7" fill-rule="nonzero"/><text xml:space="preserve" style="fill:#000000;font-family:微软雅黑,PingFang SC,Mircrosoft YaHei,Arial;font-size:18.00pt"><tspan x="25.9" y="18.8" style="font-size:12.00pt">.......</tspan></text></g><g id="shape31" transform="translate(1364.022000,276.509200)"><path stroke="#9e9f9f" stroke-width="1" d="M1.0,.0L78.8,.0C79.3,.0,79.8,.9,79.8,2.0L79.8,22.6C79.8,23.7,79.3,24.6,78.8,24.6L1.0,24.6C.4,24.6,.0,23.7,.0,22.6L.0,2.0C.0,.9,.4,.0,1.0,.0z" fill="#ffffff" fill-rule="nonzero"/><text xml:space="preserve" style="fill:#bbde9c;font-family:微软雅黑,PingFang SC,Mircrosoft YaHei,Arial;font-size:18.00pt;font-weight:bold"><tspan x="15.4" y="18.3" style="font-size:12.00pt">+New</tspan></text></g><g id="group32" transform="translate(942.994000,340.158000)"><g id="group33" transform="translate(0.000000,8.390000)"><path stroke="#323232" stroke-width="2" d="M538.6,298.3L538.6,.0L.0,.0L.0,298.3L538.6,298.3z" id="shape34" transform="translate(0.000000,18.347000)" fill="#ffffff" fill-rule="nonzero"/><g id="group35" transform="translate(0.001000,0.000000)"><path stroke="#323232" stroke-width="2" d="M538.6,36.7L538.6,.0L.0,.0L.0,36.7L538.6,36.7z" id="shape36" transform="translate(0.005000,0.000000)" fill="#d7d7d7" fill-rule="nonzero"/></g><g id="shape37" transform="translate(0.000000,34.670300)"><text xml:space="preserve" style="fill:#191919;font-family:微软雅黑,PingFang SC,Mircrosoft YaHei,Arial;font-size:16.50pt"><tspan x="9.5" y="20.0" style="font-size:11.00pt">Burp  Project  Intruder  Repeater  Window  Help</tspan></text></g><g id="group38" transform="translate(9.449000,62.670280)"><path stroke="#9e9f9f" stroke-width="1" d="M3.6,.0L203.0,.0C205.0,.0,206.6,1.0,206.6,2.2L206.6,16.7C206.6,17.9,205.0,18.9,203.0,18.9L3.6,18.9C1.6,18.9,.0,17.9,.0,16.7L.0,2.2C.0,1.0,1.6,.0,3.6,.0z" id="shape39" fill="#ffffff" fill-rule="nonzero"/><g id="shape40" transform="translate(0.000100,0.000000)"><path stroke="#9e9f9f" stroke-width="1" d="M3.1,.0L68.5,.0L68.5,18.9L3.1,18.9C1.4,18.9,.0,18.1,.0,17.0L.0,1.9C.0,.8,1.4,.0,3.1,.0z" fill="#dadada" fill-rule="nonzero"/><text xml:space="preserve" style="fill:#868686;font-family:微软雅黑,PingFang SC,Mircrosoft YaHei,Arial;font-size:15.00pt"><tspan x="15.8" y="14.9" style="font-size:10.00pt">Pretty</tspan></text></g><g id="shape41" transform="matrix(-1.000000,0.000000,0.000000,1.000000,206.623400,0.000000)"><path stroke="#9e9f9f" stroke-width="1" d="M3.1,.0L68.5,.0L68.5,18.9L3.1,18.9C1.4,18.9,.0,18.1,.0,17.0L.0,1.9C.0,.8,1.4,.0,3.1,.0z" fill="#dadada" fill-rule="nonzero"/><text transform="matrix(-1.00,0.00,0.00,1.00,68.5,0.0)" xml:space="preserve" style="fill:#000000;font-family:微软雅黑,PingFang SC,Mircrosoft YaHei,Arial;font-size:15.00pt"><tspan x="22.3" y="14.9" style="font-size:10.00pt">Hex</tspan></text></g><g id="shape42" transform="translate(68.525200,0.000000)"><path stroke="#9e9f9f" stroke-width="1" d="M.0,.0L69.6,.0L69.6,18.9L.0,18.9L.0,.0z" fill="#27659e" fill-rule="nonzero"/><text xml:space="preserve" style="fill:#ffffff;font-family:微软雅黑,PingFang SC,Mircrosoft YaHei,Arial;font-size:18.00pt"><tspan x="18.8" y="15.9" style="font-size:12.00pt">Raw</tspan></text></g></g><g id="shape43" transform="translate(20.787000,96.686000)"><text xml:space="preserve" style="fill:#000000;font-family:Times New Roman,PingFang SC,Mircrosoft YaHei,Arial;font-size:15.00pt"><tspan x="4.3" y="4.0" style="font-size:10.00pt">1     POST</tspan><tspan x="56.3" style="font-size:10.00pt;font-weight:bold"> </tspan><tspan x="59.3" style="fill:#62b2ca;font-size:10.00pt;font-weight:bold">/goform/setPptpUserList</tspan><tspan x="194.3" style="font-size:10.00pt;font-weight:bold">  </tspan><tspan x="200.3" style="font-size:10.00pt">HTTP/1.1 </tspan><tspan x="4.3" y="20.0" style="font-size:10.00pt">2</tspan><tspan x="10.3" style="fill:#27659e;font-size:10.00pt">     Host</tspan><tspan x="51.3" style="font-size:10.00pt">: 192.168.1.1 </tspan><tspan x="4.3" y="36.0" style="font-size:10.00pt">3</tspan><tspan x="10.3" style="fill:#27659e;font-size:10.00pt">     User-Agent</tspan><tspan x="88.3" style="font-size:10.00pt">: Mozilla/5.0 (X11; Ubuntu; Linux x86_64; rv:140.0)  </tspan><tspan x="4.3" y="52.0" style="font-size:10.00pt">4</tspan><tspan x="10.3" style="fill:#27659e;font-size:10.00pt">     Accept</tspan><tspan x="63.3" style="font-size:10.00pt">: text/plain, */*; q=0.01 </tspan><tspan x="4.3" y="68.0" style="font-size:10.00pt">5</tspan><tspan x="10.3" style="fill:#27659e;font-size:10.00pt">     Accept-Language</tspan><tspan x="120.3" style="font-size:10.00pt">: en-US,en;q=0.5 </tspan><tspan x="4.3" y="84.0" style="font-size:10.00pt">6</tspan><tspan x="10.3" style="fill:#27659e;font-size:10.00pt">     Accept-Encoding</tspan><tspan x="118.3" style="font-size:10.00pt">: gzip, deflate </tspan><tspan x="4.3" y="100.0" style="font-size:10.00pt">7</tspan><tspan x="10.3" style="fill:#27659e;font-size:10.00pt">     Content-Type</tspan><tspan x="99.3" style="font-size:10.00pt">: application/x-www-form-urlencoded; charset=UTF-8</tspan><tspan x="4.3" y="116.0" style="font-size:10.00pt">8</tspan><tspan x="10.3" style="fill:#27659e;font-size:10.00pt">     X-Requested-With</tspan><tspan x="125.3" style="font-size:10.00pt">: XMLHttpRequest </tspan><tspan x="4.3" y="132.0" style="font-size:10.00pt">9</tspan><tspan x="10.3" style="fill:#27659e;font-size:10.00pt">     Content-Length</tspan><tspan x="110.3" style="font-size:10.00pt">: 50 </tspan><tspan x="4.3" y="148.0" style="font-size:10.00pt">10</tspan><tspan x="16.3" style="fill:#27659e;font-size:10.00pt">   Origin</tspan><tspan x="58.3" style="font-size:10.00pt">: http://192.168.1.1</tspan><tspan x="4.3" y="164.0" style="font-size:10.00pt">11</tspan><tspan x="16.3" style="fill:#27659e;font-size:10.00pt">   Connection</tspan><tspan x="87.3" style="font-size:10.00pt">: close </tspan><tspan x="4.3" y="180.0" style="font-size:10.00pt">12</tspan><tspan x="16.3" style="fill:#27659e;font-size:10.00pt">   Referer</tspan><tspan x="63.3" style="font-size:10.00pt">: http://192.168.1.1/pptp_server.html?random=0.8035214490709688&amp; </tspan><tspan x="4.3" y="196.0" style="font-size:10.00pt">13</tspan><tspan x="16.3" style="fill:#27659e;font-size:10.00pt">   Priority</tspan><tspan x="64.3" style="font-size:10.00pt">: u=0 </tspan><tspan x="4.3" y="212.0" style="font-size:10.00pt">14</tspan><tspan x="16.3" style="fill:#27659e;font-size:10.00pt">   </tspan><tspan x="25.3" style="fill:#c00000;font-size:10.00pt">list</tspan><tspan x="41.3" style="font-size:10.00pt">=</tspan><tspan x="48.3" style="fill:#c00000;font-size:10.00pt">admin;YWRtaW4A;1;0;;;</tspan></text></g></g><g id="shape44" transform="translate(179.278800,0.000000)"><text xml:space="preserve" style="fill:#000000;font-family:微软雅黑,PingFang SC,Mircrosoft YaHei,Arial;font-size:16.50pt"><tspan x="4.0" y="31.0" style="font-size:11.00pt">Burp Suite Professional</tspan></text></g></g><path stroke="#191919" stroke-width="1.3333300352096558" d="M.0,.0L.0,219.2" id="shape45" transform="translate(986.457000,438.425000)" fill="none"/></g></svg>